<?xml version="1.0" encoding="UTF-8"?> <svg xmlns="http://www.w3.org/2000/svg" width="154" height="35" viewBox="0 0 154 35" fill="none"> <path d="M7.12891 25.2246C5.20833 25.2246 3.68164 24.5671 2.54883 23.252C1.41602 21.9303 0.849609 20.153 0.849609 17.9199C0.849609 15.7129 1.41602 13.9551 2.54883 12.6465C3.68815 11.3379 5.21484 10.6836 7.12891 10.6836C8.59375 10.6836 9.85352 11.1068 10.9082 11.9531C11.9694 12.793 12.6074 13.8802 12.8223 15.2148H11.4648C11.25 14.2448 10.7389 13.4538 9.93164 12.8418C9.13086 12.2298 8.19661 11.9238 7.12891 11.9238C5.63151 11.9238 4.43685 12.4674 3.54492 13.5547C2.65951 14.6354 2.2168 16.0905 2.2168 17.9199C2.2168 19.7754 2.65951 21.25 3.54492 22.3438C4.43685 23.4375 5.63477 23.9844 7.13867 23.9844C8.23893 23.9844 9.17643 23.7174 9.95117 23.1836C10.7324 22.6432 11.2337 21.9108 11.4551 20.9863H12.8125C12.5456 22.3079 11.9076 23.3464 10.8984 24.1016C9.88932 24.8503 8.63281 25.2246 7.12891 25.2246ZM18.916 15.5664H16.0938V19.0137H18.7207C19.4434 19.0137 19.9967 18.8607 20.3809 18.5547C20.765 18.2487 20.957 17.8092 20.957 17.2363C20.957 16.7025 20.778 16.2923 20.4199 16.0059C20.0684 15.7129 19.5671 15.5664 18.916 15.5664ZM18.8184 20.0977H16.0938V23.916H19.0723C19.8535 23.916 20.446 23.7533 20.8496 23.4277C21.2598 23.1022 21.4648 22.6237 21.4648 21.9922C21.4648 20.7292 20.5827 20.0977 18.8184 20.0977ZM14.8145 25V14.4824H19.0625C20.0391 14.4824 20.8105 14.7201 21.377 15.1953C21.9434 15.6641 22.2266 16.3053 22.2266 17.1191C22.2266 17.6986 22.054 18.2064 21.709 18.6426C21.3639 19.0788 20.9245 19.3522 20.3906 19.4629V19.5215C21.0807 19.5996 21.6439 19.8633 22.0801 20.3125C22.5163 20.7617 22.7344 21.3281 22.7344 22.0117C22.7344 22.9492 22.4121 23.6816 21.7676 24.209C21.123 24.7363 20.2344 25 19.1016 25H14.8145ZM28.2715 19.9414H30.6445V15.5664H28.2715C27.4967 15.5664 26.8815 15.7682 26.4258 16.1719C25.9701 16.569 25.7422 17.1126 25.7422 17.8027C25.7422 18.4408 25.9733 18.9583 26.4355 19.3555C26.8978 19.7461 27.5098 19.9414 28.2715 19.9414ZM30.6445 25V21.0254H28.4082L25.5176 25H24.0137L27.0898 20.8105C26.2695 20.6413 25.625 20.2962 25.1562 19.7754C24.694 19.248 24.4629 18.6003 24.4629 17.832C24.4629 16.7969 24.8047 15.9798 25.4883 15.3809C26.1784 14.7819 27.1061 14.4824 28.2715 14.4824H31.9238V25H30.6445ZM37.8809 25.1855C36.748 25.1855 35.8105 24.9251 35.0684 24.4043C34.3327 23.877 33.9062 23.1803 33.7891 22.3145H35.0977C35.2148 22.8548 35.5176 23.2878 36.0059 23.6133C36.4941 23.9323 37.1191 24.0918 37.8809 24.0918C38.7077 24.0918 39.3587 23.9095 39.834 23.5449C40.3092 23.1738 40.5469 22.679 40.5469 22.0605C40.5469 20.752 39.6419 20.0977 37.832 20.0977H36.2012V19.0137H37.832C38.5938 19.0137 39.1764 18.8574 39.5801 18.5449C39.9902 18.2259 40.1953 17.7734 40.1953 17.1875C40.1953 16.6536 39.9967 16.224 39.5996 15.8984C39.2025 15.5729 38.6393 15.4102 37.9102 15.4102C37.181 15.4102 36.582 15.5729 36.1133 15.8984C35.651 16.224 35.3678 16.6536 35.2637 17.1875H34.0039C34.1341 16.3216 34.5443 15.625 35.2344 15.0977C35.9245 14.5703 36.8164 14.3066 37.9102 14.3066C39.0234 14.3066 39.8926 14.5605 40.5176 15.0684C41.1426 15.5762 41.4551 16.2565 41.4551 17.1094C41.4551 17.6823 41.276 18.1868 40.918 18.623C40.5664 19.0527 40.1074 19.3294 39.541 19.4531V19.5117C40.2441 19.6419 40.7975 19.9219 41.2012 20.3516C41.6113 20.7812 41.8164 21.3281 41.8164 21.9922C41.8164 22.9622 41.4551 23.737 40.7324 24.3164C40.0163 24.8958 39.0658 25.1855 37.8809 25.1855ZM47.2168 23.9844C48.1608 23.9844 48.9486 23.7044 49.5801 23.1445C50.2181 22.5781 50.5371 21.8783 50.5371 21.0449V19.8828L47.4609 20.0977C46.5755 20.1562 45.9017 20.3548 45.4395 20.6934C44.9837 21.0254 44.7559 21.4876 44.7559 22.0801C44.7559 22.6465 44.9837 23.1055 45.4395 23.457C45.8952 23.8086 46.4876 23.9844 47.2168 23.9844ZM46.9629 25.1172C45.9147 25.1172 45.0651 24.8372 44.4141 24.2773C43.763 23.7109 43.4375 22.9753 43.4375 22.0703C43.4375 21.1719 43.7663 20.4688 44.4238 19.9609C45.0814 19.4466 46.0417 19.1439 47.3047 19.0527L50.5371 18.8379V17.9395C50.5371 17.1712 50.3027 16.5755 49.834 16.1523C49.3717 15.7292 48.7174 15.5176 47.8711 15.5176C47.1354 15.5176 46.5267 15.6966 46.0449 16.0547C45.5632 16.4062 45.2637 16.8945 45.1465 17.5195H43.9062C43.9583 16.5951 44.3555 15.8398 45.0977 15.2539C45.8464 14.6615 46.7741 14.3652 47.8809 14.3652C49.0853 14.3652 50.0423 14.6777 50.752 15.3027C51.4681 15.9277 51.8262 16.7708 51.8262 17.832V25H50.5957V22.9883H50.5664C50.2799 23.6263 49.8079 24.1406 49.1504 24.5312C48.4993 24.9219 47.7702 25.1172 46.9629 25.1172ZM61.6309 14.4824V15.5664H58.0371V25H56.7578V15.5664H53.1641V14.4824H61.6309ZM66.8457 19.1504H64.5703V23.916H66.8457C67.6139 23.916 68.2259 23.7012 68.6816 23.2715C69.1439 22.8353 69.375 22.2559 69.375 21.5332C69.375 20.804 69.1439 20.2246 68.6816 19.7949C68.2259 19.3652 67.6139 19.1504 66.8457 19.1504ZM63.291 25V14.4824H64.5703V18.0566H66.8457C68.0046 18.0566 68.929 18.3724 69.6191 19.0039C70.3158 19.6289 70.6641 20.472 70.6641 21.5332C70.6641 22.5879 70.3158 23.431 69.6191 24.0625C68.929 24.6875 68.0046 25 66.8457 25H63.291ZM81.0645 17.5879H79.7754C79.6061 16.9694 79.2578 16.4714 78.7305 16.0938C78.2096 15.7096 77.5618 15.5176 76.7871 15.5176C75.752 15.5176 74.9219 15.9017 74.2969 16.6699C73.6719 17.4382 73.3594 18.4603 73.3594 19.7363C73.3594 21.0319 73.6719 22.0605 74.2969 22.8223C74.9284 23.5775 75.7617 23.9551 76.7969 23.9551C77.5521 23.9551 78.1901 23.7826 78.7109 23.4375C79.2318 23.0859 79.5866 22.5977 79.7754 21.9727H81.0645C80.8691 22.9167 80.3841 23.6784 79.6094 24.2578C78.8411 24.8307 77.9036 25.1172 76.7969 25.1172C75.3581 25.1172 74.2057 24.6354 73.3398 23.6719C72.4805 22.7018 72.0508 21.39 72.0508 19.7363C72.0508 18.1087 72.4805 16.8066 73.3398 15.8301C74.2057 14.8535 75.3516 14.3652 76.7773 14.3652C77.9167 14.3652 78.8704 14.6712 79.6387 15.2832C80.4134 15.8952 80.8887 16.6634 81.0645 17.5879ZM86.4746 19.9414H88.8477V15.5664H86.4746C85.6999 15.5664 85.0846 15.7682 84.6289 16.1719C84.1732 16.569 83.9453 17.1126 83.9453 17.8027C83.9453 18.4408 84.1764 18.9583 84.6387 19.3555C85.1009 19.7461 85.7129 19.9414 86.4746 19.9414ZM88.8477 25V21.0254H86.6113L83.7207 25H82.2168L85.293 20.8105C84.4727 20.6413 83.8281 20.2962 83.3594 19.7754C82.8971 19.248 82.666 18.6003 82.666 17.832C82.666 16.7969 83.0078 15.9798 83.6914 15.3809C84.3815 14.7819 85.3092 14.4824 86.4746 14.4824H90.127V25H88.8477Z" fill="#373737"></path> <path d="M153.354 18.3536C153.549 18.1583 153.549 17.8417 153.354 17.6464L150.172 14.4645C149.976 14.2692 149.66 14.2692 149.464 14.4645C149.269 14.6597 149.269 14.9763 149.464 15.1716L152.293 18L149.464 20.8284C149.269 21.0237 149.269 21.3403 149.464 21.5355C149.66 21.7308 149.976 21.7308 150.172 21.5355L153.354 18.3536ZM126 18.5L153 18.5L153 17.5L126 17.5L126 18.5Z" fill="rgb(80, 80, 80)"></path> </svg> 